<svg width="25" height="25" viewBox="0 0 25 25" fill="none" xmlns="http://www.w3.org/2000/svg">
<g id="cil:toilet" clip-path="url(#clip0_63_55)">
<path id="Vector" d="M12.0841 20.7814H10.4646C8.19714 20.7814 6.10371 20.06 4.57372 18.7414L4.67165 18.6278L4.57372 18.7414C2.95469 17.346 2.0646 15.3518 2.0646 13.1314C2.0646 12.2201 2.80333 11.4814 3.7146 11.4814H16.1432L18.5934 2.03051C18.6963 1.63364 19.0544 1.35648 19.4643 1.35637M12.0841 20.7814L22.9995 6.07457C23.1413 5.53495 23.1567 4.96989 23.0446 4.42334C22.9324 3.87678 22.6956 3.36348 22.3527 2.92335L22.4716 2.83195C22.4715 2.83182 22.4714 2.83169 22.4713 2.83156C22.1173 2.37103 21.6619 1.99835 21.1404 1.7425C20.6188 1.48661 20.0453 1.35447 19.4643 1.35637M12.0841 20.7814L11.7276 23.9898L11.7091 24.1564H11.8767H21.3396H21.4896V24.0064V12.4961L23.1446 6.1127C23.1446 6.11266 23.1446 6.11262 23.1446 6.11258L12.0841 20.7814ZM19.4643 1.35637C19.4644 1.35637 19.4645 1.35637 19.4646 1.35637V1.50637L19.4641 1.35637C19.4642 1.35637 19.4643 1.35637 19.4643 1.35637ZM4.7146 13.2814H19.6896V22.3564H13.7201L14.0766 19.1479L14.0951 18.9814H13.9275H10.4646C6.93317 18.9814 4.39844 17.008 3.93962 14.1043C3.87037 13.666 4.23727 13.2814 4.7146 13.2814ZM21.4023 5.66055L19.8932 11.4814H18.0027L20.1317 3.26972C20.5779 3.42784 20.9555 3.73962 21.1949 4.15173C21.4599 4.60776 21.5344 5.14989 21.4023 5.66055Z" fill="#1E1E1E" stroke="#1E1E1E" stroke-width="0.3"/>
</g>
<defs>
<clipPath id="clip0_63_55">
<rect width="24" height="24" fill="white" transform="translate(0.3396 0.756348)"/>
</clipPath>
</defs>
</svg>
