<svg width="31" height="31" viewBox="0 0 31 31" fill="none" xmlns="http://www.w3.org/2000/svg">
<g id="ph:chair">
<path id="Vector" d="M25.083 16.4019H21.333V12.6519H23.208C23.7053 12.6519 24.1822 12.4543 24.5338 12.1027C24.8855 11.751 25.083 11.2741 25.083 10.7769V5.15186C25.083 4.65457 24.8855 4.17766 24.5338 3.82603C24.1822 3.4744 23.7053 3.27686 23.208 3.27686H8.20801C7.71073 3.27686 7.23381 3.4744 6.88218 3.82603C6.53055 4.17766 6.33301 4.65457 6.33301 5.15186V10.7769C6.33301 11.2741 6.53055 11.751 6.88218 12.1027C7.23381 12.4543 7.71073 12.6519 8.20801 12.6519H10.083V16.4019H6.33301C5.83573 16.4019 5.35881 16.5994 5.00718 16.951C4.65555 17.3027 4.45801 17.7796 4.45801 18.2769V20.1519C4.45801 20.6491 4.65555 21.126 5.00718 21.4777C5.35881 21.8293 5.83573 22.0269 6.33301 22.0269H7.27051V26.7144C7.27051 26.963 7.36928 27.2015 7.5451 27.3773C7.72091 27.5531 7.95937 27.6519 8.20801 27.6519C8.45665 27.6519 8.69511 27.5531 8.87092 27.3773C9.04674 27.2015 9.14551 26.963 9.14551 26.7144V22.0269H22.2705V26.7144C22.2705 26.963 22.3693 27.2015 22.5451 27.3773C22.7209 27.5531 22.9594 27.6519 23.208 27.6519C23.4566 27.6519 23.6951 27.5531 23.8709 27.3773C24.0467 27.2015 24.1455 26.963 24.1455 26.7144V22.0269H25.083C25.5803 22.0269 26.0572 21.8293 26.4088 21.4777C26.7605 21.126 26.958 20.6491 26.958 20.1519V18.2769C26.958 17.7796 26.7605 17.3027 26.4088 16.951C26.0572 16.5994 25.5803 16.4019 25.083 16.4019ZM8.20801 5.15186H23.208V10.7769H8.20801V5.15186ZM11.958 12.6519H19.458V16.4019H11.958V12.6519ZM25.083 20.1519H6.33301V18.2769H25.083V20.1519Z" fill="#1E1E1E"/>
</g>
</svg>
