<svg width="30" height="30" viewBox="0 0 30 30" fill="none" xmlns="http://www.w3.org/2000/svg">
<g id="tabler:coffee">
<g id="Group">
<path id="Vector" d="M4.03491 17.3879C5.05726 18.1787 6.59326 18.6406 8.34604 18.6196C10.0988 18.6406 11.6348 18.1787 12.6572 17.3879C13.6795 16.5971 15.2155 16.1352 16.9683 16.1561C18.7211 16.1352 20.2571 16.5971 21.2794 17.3879M10.1937 3.83862C9.80382 4.11844 9.48796 4.48895 9.27336 4.91816C9.05875 5.34736 8.95186 5.82236 8.96191 6.30212C8.95186 6.78188 9.05875 7.25688 9.27336 7.68609C9.48796 8.11529 9.80382 8.48581 10.1937 8.76562M15.1207 3.83862C14.7308 4.11844 14.415 4.48895 14.2004 4.91816C13.9858 5.34736 13.8789 5.82236 13.8889 6.30212C13.8789 6.78188 13.9858 7.25688 14.2004 7.68609C14.415 8.11529 14.7308 8.48581 15.1207 8.76562" stroke="#1E1E1E" stroke-width="2.4635" stroke-linecap="round" stroke-linejoin="round"/>
<path id="Vector_2" d="M4.03491 12.4609H21.2794V18.6197C21.2794 20.5798 20.5008 22.4596 19.1148 23.8456C17.7288 25.2315 15.849 26.0102 13.8889 26.0102H11.4254C9.46533 26.0102 7.58553 25.2315 6.19954 23.8456C4.81355 22.4596 4.03491 20.5798 4.03491 18.6197V12.4609Z" stroke="#1E1E1E" stroke-width="2.4635" stroke-linecap="round" stroke-linejoin="round"/>
<path id="Vector_3" d="M20.9666 20.7454C21.5166 20.998 22.1204 21.1115 22.7246 21.0761C23.3289 21.0406 23.9152 20.8573 24.432 20.5422C24.9488 20.2271 25.3802 19.7898 25.6885 19.2689C25.9967 18.7479 26.1723 18.1593 26.1997 17.5546C26.2271 16.9499 26.1056 16.3478 25.8458 15.8011C25.586 15.2544 25.1959 14.7799 24.7097 14.4193C24.2236 14.0587 23.6563 13.823 23.0577 13.733C22.4592 13.643 21.8477 13.7014 21.277 13.9031" stroke="#1E1E1E" stroke-width="2.4635" stroke-linecap="round" stroke-linejoin="round"/>
</g>
</g>
</svg>
