<svg xmlns="http://www.w3.org/2000/svg" xmlns:xlink="http://www.w3.org/1999/xlink" version="1.1" x="0px" y="0px" viewBox="0 0 100 125" enable-background="new 0 0 100 100" xml:space="preserve"><path d="M57.3,93c0.5,0,0.7-0.1,0.7,0.4v1c0,0.5-0.2,0.6-0.7,0.6H43.4c-0.5,0-0.4-0.1-0.4-0.6v-1c0-0.5-0.1-0.4,0.4-0.4H57 M57.3,91  H43.4C42,91,41,92,41,93.4v1c0,1.4,1,2.6,2.4,2.6h13.9c1.4,0,2.7-1.2,2.7-2.6v-1C60,92,58.8,91,57.3,91L57.3,91z M73.9,25.4  c-0.6-3.9-4-7.1-7-7.5c-11-1.2-22-1.2-33,0c-3,0.3-6.4,3.5-7,7.4c-0.8,6-0.8,11.5,0,17.5c0.4,2.9,2.5,5.5,4.7,6.8  c-0.5,0.6-0.8,1.3-0.8,2.2l0.9,24.5c0,6,4.6,11.9,10.2,12c1,1.1,2.4,1.7,4,1.7h8.8c1.6,0,3.1-0.6,4-1.7C64.4,88.1,69,82.7,69,76.7  l0.9-25.4c0-0.7-0.2-1.3-0.6-1.8c2.2-1.3,4.1-3.7,4.5-6.6C74.7,36.9,74.7,31.4,73.9,25.4z M58.4,84.8l0-0.1c0,2-1.6,3.3-3.6,3.3H46  c-2,0-3.6-1.3-3.6-3.3l0,0.1l-0.9-16.3c0-2,1.6-3.4,3.6-3.4h10.5h0c2,0,3.6,1.5,3.6,3.5L58.4,84.8z M65.4,76.6c0,3.7-2.2,7.1-5.2,8  L61,68.5l0,0v0c0-3-2.4-5.4-5.4-5.4H45.1c-3,0-5.1,2.5-5.1,5.4v0l-0.1,0l0.8,16c-2.9-1-5.3-4.6-5.3-8.4L34.4,52H66h0.3L65.4,76.6z   M64.2,47c-9.2,0-18.5,0-27.7,0c-2.6,0-5.4-2.4-5.9-5.4c-0.7-4.6-0.7-10,0-14.5c0.5-3,3.4-6.1,5.9-6.1c9.2,0,18.5,0,27.7,0  c2.6,0,5.4,3.1,5.9,6c0.7,4.6,0.7,9.7,0,14.2C69.7,44.2,66.8,47,64.2,47z M63.6,57c-8.8,0.6-17.6,0.6-26.3,0c-0.5,0-0.8-0.5-0.8-0.9  l0,0c0-0.5,0.5-0.8,0.9-0.8c8.7,0.6,17.4,0.6,26.1,0c0.5,0,0.9,0.3,0.9,0.8l0,0C64.4,56.5,64,56.9,63.6,57z M63,26  c1.4,0,2.8,0.8,3.1,2.3c0.6,3.5,0.5,7.7-0.1,11.2c-0.3,1.7-2.2,3.5-3.5,3.5H38.2c-1.3,0-3.2-2-3.5-3.6c-0.6-3.5-0.6-7.1,0-10.6  c0.3-1.7,2.1-2.8,3.5-2.8H63 M62.5,24c-8.1,0-16.2,0-24.3,0c-2.2,0-4.8,2-5.2,4.4c-0.6,3.7-0.6,7.7,0,11.4c0.4,2.4,2.9,5.2,5.2,5.2  c8.1,0,16.2,0,24.3,0c2.2,0,4.8-2.7,5.2-5.1c0.6-3.7,0.6-8.2,0-11.9C67.3,25.6,64.8,24,62.5,24L62.5,24z"/><path d="M49.5,14.5c-0.8,0-1.5-0.7-1.5-1.5V5c0-0.8,0.7-1.5,1.5-1.5S51,4.2,51,5v8C51,13.8,50.3,14.5,49.5,14.5z"/><path d="M34.1,15.1c0.8-0.3,1.1-1.2,0.8-2l-3.1-7.4c-0.3-0.8-1.2-1.1-2-0.8c-0.8,0.3-1.1,1.2-0.8,2l3.1,7.4c0.2,0.6,0.8,0.9,1.4,0.9  C33.7,15.2,33.9,15.2,34.1,15.1z"/><path d="M67.9,14.3l3.1-7.4c0.3-0.8,0-1.6-0.8-2c-0.8-0.3-1.6,0-2,0.8l-3.1,7.4c-0.3,0.8,0,1.6,0.8,2c0.2,0.1,0.4,0.1,0.6,0.1  C67.1,15.2,67.6,14.8,67.9,14.3z"/><path d="M23.5,33.5c0-0.8-0.7-1.5-1.5-1.5h-8c-0.8,0-1.5,0.7-1.5,1.5S13.2,35,14,35h8C22.8,35,23.5,34.3,23.5,33.5z"/><path d="M25.1,21.1c0.3-0.8,0-1.6-0.8-2l-7.4-3.1c-0.8-0.3-1.6,0-2,0.8s0,1.6,0.8,2l7.4,3.1c0.2,0.1,0.4,0.1,0.6,0.1  C24.3,22,24.8,21.7,25.1,21.1z"/><path d="M77.4,21.9l7.4-3.1c0.8-0.3,1.1-1.2,0.8-2c-0.3-0.8-1.2-1.1-2-0.8l-7.4,3.1c-0.8,0.3-1.1,1.2-0.8,2c0.2,0.6,0.8,0.9,1.4,0.9  C77,22,77.2,22,77.4,21.9z"/><path d="M88,33.5c0-0.8-0.7-1.5-1.5-1.5h-8c-0.8,0-1.5,0.7-1.5,1.5s0.7,1.5,1.5,1.5h8C87.3,35,88,34.3,88,33.5z"/></svg>