<svg width="30" height="31" viewBox="0 0 30 31" fill="none" xmlns="http://www.w3.org/2000/svg">
<g id="mdi:fridge-industrial-outline">
<path id="Vector" d="M21.2793 3.01172H8.96179C7.60687 3.01172 6.49829 4.12029 6.49829 5.47522V23.9515C6.49829 24.6048 6.75784 25.2314 7.21983 25.6934C7.68183 26.1554 8.30843 26.415 8.96179 26.415V27.6467H11.4253V26.415H18.8158V27.6467H21.2793V26.415C22.6465 26.415 23.7428 25.3187 23.7428 23.9515V5.47522C23.7428 4.82186 23.4832 4.19526 23.0212 3.73326C22.5592 3.27127 21.9326 3.01172 21.2793 3.01172ZM21.2793 23.9515H8.96179V5.47522H21.2793V23.9515ZM12.657 19.0245H10.1935V12.8657H12.657V19.0245Z" fill="#1E1E1E"/>
</g>
</svg>
