<svg width="25" height="25" viewBox="0 0 25 25" fill="none" xmlns="http://www.w3.org/2000/svg">
<g id="tabler:hanger">
<path id="Vector" d="M14.3395 6.46436C14.3395 5.93392 14.1288 5.42521 13.7538 5.05014C13.3787 4.67507 12.87 4.46436 12.3395 4.46436C11.8091 4.46436 11.3004 4.67507 10.9253 5.05014C10.5503 5.42521 10.3395 5.93392 10.3395 6.46436C10.3395 8.13136 11.0095 9.46436 12.3395 10.4644H12.3315M12.3315 10.4644L20.3025 14.8924C20.6145 15.0656 20.8744 15.3191 21.0553 15.6267C21.2363 15.9342 21.3316 16.2845 21.3315 16.6414V17.4644C21.3315 17.9948 21.1208 18.5035 20.7458 18.8786C20.3707 19.2536 19.862 19.4644 19.3315 19.4644H5.33154C4.80111 19.4644 4.2924 19.2536 3.91733 18.8786C3.54226 18.5035 3.33154 17.9948 3.33154 17.4644V16.6414C3.33145 16.2845 3.42681 15.9342 3.60775 15.6267C3.78869 15.3191 4.0486 15.0656 4.36054 14.8924L12.3315 10.4644Z" stroke="#1E1E1E" stroke-width="2.5" stroke-linecap="round" stroke-linejoin="round"/>
</g>
</svg>
