<svg width="31" height="31" viewBox="0 0 31 31" fill="none" xmlns="http://www.w3.org/2000/svg">
<g id="ph:ladder">
<path id="Vector" d="M25.9643 25.1638L19.9866 8.72705L21.0518 5.79736H22.2705C22.5192 5.79736 22.7576 5.69859 22.9335 5.52278C23.1093 5.34696 23.208 5.1085 23.208 4.85986C23.208 4.61122 23.1093 4.37277 22.9335 4.19695C22.7576 4.02114 22.5192 3.92236 22.2705 3.92236H11.0205C10.7719 3.92236 10.5335 4.02114 10.3576 4.19695C10.1818 4.37277 10.083 4.61122 10.083 4.85986C10.083 5.1085 10.1818 5.34696 10.3576 5.52278C10.5335 5.69859 10.7719 5.79736 11.0205 5.79736H11.5573L4.5143 25.1638C4.4721 25.2796 4.45315 25.4025 4.45854 25.5257C4.46392 25.6488 4.49352 25.7697 4.54566 25.8813C4.59779 25.993 4.67144 26.0933 4.76238 26.1765C4.85331 26.2597 4.95976 26.3241 5.07563 26.3661C5.17827 26.403 5.28648 26.422 5.39555 26.4224C5.58808 26.4224 5.77594 26.3631 5.93361 26.2526C6.09127 26.1421 6.2111 25.9858 6.2768 25.8048L7.41586 22.6724H12.9237L12.0166 25.1638C11.9744 25.2796 11.9555 25.4025 11.9609 25.5257C11.9663 25.6488 11.9959 25.7697 12.048 25.8813C12.1001 25.993 12.1738 26.0933 12.2647 26.1765C12.3557 26.2597 12.4621 26.3241 12.578 26.3661C12.6799 26.4028 12.7873 26.4218 12.8955 26.4224C13.0881 26.4224 13.2759 26.3631 13.4336 26.2526C13.5913 26.1421 13.7111 25.9858 13.7768 25.8048L15.9424 19.8599H22.0362L24.1983 25.8048C24.2642 25.9863 24.3846 26.1431 24.5429 26.2536C24.7013 26.3642 24.8899 26.4231 25.083 26.4224C25.1921 26.422 25.3003 26.403 25.403 26.3661C25.5188 26.3241 25.6253 26.2597 25.7162 26.1765C25.8072 26.0933 25.8808 25.993 25.9329 25.8813C25.9851 25.7697 26.0147 25.6488 26.0201 25.5257C26.0254 25.4025 26.0065 25.2796 25.9643 25.1638ZM15.6518 15.1724H10.144L11.5069 11.4224H17.0147L15.6518 15.1724ZM19.0608 5.79736L17.6932 9.54736H12.1924L13.5518 5.79736H19.0608ZM8.09789 20.7974L9.46196 17.0474H14.9698L13.5987 20.7974H8.09789ZM16.6198 17.9849L18.9893 11.4704L21.3577 17.9849H16.6198Z" fill="#1E1E1E"/>
</g>
</svg>
