<svg width="24" height="25" viewBox="0 0 24 25" fill="none" xmlns="http://www.w3.org/2000/svg">
<path d="M21.75 7.27637V17.7764C21.75 18.1742 21.592 18.5557 21.3107 18.837C21.0294 19.1183 20.6478 19.2764 20.25 19.2764H3.75C3.35218 19.2764 2.97064 19.1183 2.68934 18.837C2.40804 18.5557 2.25 18.1742 2.25 17.7764V7.27637M21.75 7.27637C21.75 6.87854 21.592 6.49701 21.3107 6.21571C21.0294 5.9344 20.6478 5.77637 20.25 5.77637H3.75C3.35218 5.77637 2.97064 5.9344 2.68934 6.21571C2.40804 6.49701 2.25 6.87854 2.25 7.27637M21.75 7.27637L12.8535 13.4354C12.6027 13.6089 12.305 13.7019 12 13.7019C11.695 13.7019 11.3973 13.6089 11.1465 13.4354L2.25 7.27637" stroke="#B1FF3D" stroke-width="1.5" stroke-linecap="round" stroke-linejoin="round"/>
</svg>
