<svg width="26" height="26" viewBox="0 0 26 26" fill="none" xmlns="http://www.w3.org/2000/svg">
<g id="pepicons-pop:studio-backdrop">
<g id="Group">
<path id="Vector" fill-rule="evenodd" clip-rule="evenodd" d="M4.4032 4.30221C4.4032 3.81219 4.59786 3.34224 4.94436 2.99575C5.29085 2.64925 5.7608 2.45459 6.25082 2.45459H19.8001C20.2901 2.45459 20.76 2.64925 21.1065 2.99575C21.453 3.34224 21.6477 3.81219 21.6477 4.30221V12.9245C21.6477 13.4145 21.453 13.8844 21.1065 14.2309C20.76 14.5774 20.2901 14.7721 19.8001 14.7721H6.25082C5.7608 14.7721 5.29085 14.5774 4.94436 14.2309C4.59786 13.8844 4.4032 13.4145 4.4032 12.9245V4.30221ZM6.8667 4.91809V12.3086H19.1842V4.91809H6.8667Z" fill="#1E1E1E"/>
<path id="Vector_2" fill-rule="evenodd" clip-rule="evenodd" d="M2.86348 3.68634C2.86348 3.35966 2.99325 3.04636 3.22425 2.81536C3.45525 2.58436 3.76855 2.45459 4.09523 2.45459H21.9556C22.2823 2.45459 22.5956 2.58436 22.8266 2.81536C23.0576 3.04636 23.1873 3.35966 23.1873 3.68634C23.1873 4.01302 23.0576 4.32632 22.8266 4.55732C22.5956 4.78832 22.2823 4.91809 21.9556 4.91809H4.09523C3.76855 4.91809 3.45525 4.78832 3.22425 4.55732C2.99325 4.32632 2.86348 4.01302 2.86348 3.68634ZM5.29003 20.9308L6.84203 13.1659L4.4278 12.683L2.72675 21.1846C2.6732 21.4525 2.67974 21.729 2.74591 21.9941C2.81208 22.2592 2.93623 22.5064 3.10941 22.7177C3.2826 22.9291 3.5005 23.0994 3.74744 23.2164C3.99437 23.3334 4.26418 23.3942 4.53743 23.3943H21.5122C21.7855 23.3944 22.0555 23.3337 22.3026 23.2168C22.5496 23.0999 22.7677 22.9296 22.941 22.7182C23.1143 22.5068 23.2386 22.2596 23.3048 21.9944C23.3711 21.7292 23.3776 21.4526 23.3241 21.1846L21.6243 12.683L19.2076 13.1659L20.7608 20.9308H5.29003Z" fill="#1E1E1E"/>
</g>
</g>
</svg>
