<svg width="31" height="31" viewBox="0 0 31 31" fill="none" xmlns="http://www.w3.org/2000/svg">
<g id="material-symbols:table-bar-outline">
<path id="Vector" d="M8.09851 25.6103L9.94613 20.9913C10.1309 20.5191 10.4286 20.1442 10.8392 19.8667C11.2497 19.5891 11.7116 19.4508 12.2249 19.4516H14.2573V14.4938C11.1163 14.3912 8.48322 13.9292 6.35805 13.1081C4.23287 12.2869 3.17069 11.322 3.17151 10.2135C3.17151 9.02278 4.37247 8.00658 6.77438 7.16489C9.17629 6.32319 12.0812 5.90234 15.489 5.90234C18.9174 5.90234 21.8276 6.32319 24.2196 7.16489C26.6117 8.00658 27.8073 9.02278 27.8065 10.2135C27.8065 11.322 26.7439 12.2869 24.6187 13.1081C22.4936 13.9292 19.8609 14.3912 16.7208 14.4938V19.4516H18.7531C19.2458 19.4516 19.7028 19.5904 20.1241 19.8679C20.5453 20.1455 20.8479 20.5199 21.0319 20.9913L22.8795 25.6103H20.416L18.9379 21.9151H12.0401L10.562 25.6103H8.09851ZM15.489 12.0611C17.4803 12.0611 19.3588 11.8866 21.1243 11.5376C22.8898 11.1886 24.1831 10.7472 25.0043 10.2135C24.1831 9.67971 22.8898 9.23833 21.1243 8.88934C19.3588 8.54034 17.4803 8.36584 15.489 8.36584C13.4977 8.36584 11.6193 8.54034 9.85375 8.88934C8.08824 9.23833 6.79491 9.67971 5.97374 10.2135C6.79491 10.7472 8.08824 11.1886 9.85375 11.5376C11.6193 11.8866 13.4977 12.0611 15.489 12.0611Z" fill="#1E1E1E"/>
</g>
</svg>
