<svg width="334" height="376" viewBox="0 0 334 376" fill="none" xmlns="http://www.w3.org/2000/svg">
<path d="M246.719 90.0784C374.681 218.041 238.923 333.978 238.923 333.978C238.923 333.978 239.713 294.424 214.208 270.718C188.703 247.011 161.843 254.952 161.843 254.952C161.843 254.952 160.257 214.257 141.264 195.535C122.271 176.813 84.7633 175.926 84.7633 175.926C84.7633 175.926 84.3546 143.491 65.81 122.578C47.2655 101.665 10.4216 103.255 10.4216 103.255C10.4216 103.255 118.757 -37.8839 246.719 90.0784Z" stroke="black" stroke-width="12" stroke-linejoin="round"/>
<path d="M249.353 85.9822L252.182 83.1538" stroke="black" stroke-width="16" stroke-linecap="round" stroke-linejoin="round"/>
<rect x="83.8896" y="209.019" width="35" height="87" transform="rotate(45 83.8896 209.019)" stroke="black" stroke-width="12" stroke-linejoin="round"/>
<path d="M69.041 223.868L93.0826 247.91" stroke="black" stroke-width="10" stroke-linecap="round" stroke-linejoin="round"/>
<path d="M143.994 198.412L47.1205 295.286" stroke="black" stroke-width="12" stroke-linecap="round" stroke-linejoin="round"/>
<path d="M244.402 87.3954C244.402 87.3954 152.48 49.9199 82.8281 174.016M164.145 255.333C298.85 180.734 246.523 85.2741 248.291 95.5272" stroke="black" stroke-width="6" stroke-linecap="round" stroke-linejoin="round" stroke-dasharray="12 24 36 48"/>
<path d="M78 266L78 335" stroke="black" stroke-width="12" stroke-linecap="round" stroke-linejoin="round"/>
</svg>
