<svg width="30" height="31" viewBox="0 0 30 31" fill="none" xmlns="http://www.w3.org/2000/svg">
<g id="majesticons:glas-water-line">
<path id="Vector" d="M6.4982 5.77832H23.7427M6.4982 5.77832H5.88232M6.4982 5.77832L7.72995 15.6323M23.7427 5.77832H24.3586M23.7427 5.77832L22.5109 15.6323M7.72995 15.6323L8.69195 23.3283C8.76641 23.9242 9.056 24.4724 9.50625 24.8698C9.95651 25.2672 10.5364 25.4864 11.137 25.4863H19.1039C19.7045 25.4864 20.2844 25.2672 20.7346 24.8698C21.1849 24.4724 21.4745 23.9242 21.5489 23.3283L22.5109 15.6323M7.72995 15.6323L10.2821 14.7824C10.638 14.6637 11.0163 14.6278 11.3882 14.6776C11.7601 14.7273 12.1157 14.8613 12.4278 15.0694L13.7544 15.9526C14.159 16.2221 14.6343 16.366 15.1204 16.366C15.6066 16.366 16.0819 16.2221 16.4865 15.9526L17.8131 15.0694C18.1251 14.8611 18.4807 14.7269 18.8525 14.677C19.2244 14.627 19.6028 14.6626 19.9588 14.7812L22.5109 15.6323" stroke="#1E1E1E" stroke-width="2.4635" stroke-linecap="round" stroke-linejoin="round"/>
</g>
</svg>
