<svg width="24" height="25" viewBox="0 0 24 25" fill="none" xmlns="http://www.w3.org/2000/svg">
<path d="M19.05 5.43643C18.1332 4.51035 17.0412 3.77609 15.8377 3.27648C14.6341 2.77686 13.3432 2.52189 12.04 2.52643C6.58005 2.52643 2.13005 6.97643 2.13005 12.4364C2.13005 14.1864 2.59005 15.8864 3.45005 17.3864L2.05005 22.5264L7.30005 21.1464C8.75005 21.9364 10.38 22.3564 12.04 22.3564C17.5 22.3564 21.9501 17.9064 21.9501 12.4464C21.9501 9.79643 20.92 7.30643 19.05 5.43643ZM12.04 20.6764C10.56 20.6764 9.11005 20.2764 7.84005 19.5264L7.54005 19.3464L4.42005 20.1664L5.25005 17.1264L5.05005 16.8164C4.2278 15.5034 3.79119 13.9857 3.79005 12.4364C3.79005 7.89643 7.49005 4.19643 12.03 4.19643C14.23 4.19643 16.3 5.05643 17.85 6.61643C18.6175 7.38039 19.2257 8.28909 19.6394 9.28985C20.0531 10.2906 20.2641 11.3635 20.26 12.4464C20.2801 16.9864 16.58 20.6764 12.04 20.6764ZM16.56 14.5164C16.31 14.3964 15.09 13.7964 14.87 13.7064C14.64 13.6264 14.48 13.5864 14.31 13.8264C14.14 14.0764 13.67 14.6364 13.53 14.7964C13.39 14.9664 13.24 14.9864 12.99 14.8564C12.74 14.7364 11.94 14.4664 11 13.6264C10.26 12.9664 9.77005 12.1564 9.62005 11.9064C9.48005 11.6564 9.60005 11.5264 9.73005 11.3964C9.84005 11.2864 9.98005 11.1064 10.1 10.9664C10.22 10.8264 10.27 10.7164 10.35 10.5564C10.43 10.3864 10.39 10.2464 10.33 10.1264C10.27 10.0064 9.77005 8.78643 9.57005 8.28643C9.37005 7.80643 9.16005 7.86643 9.01005 7.85643H8.53005C8.36005 7.85643 8.10005 7.91643 7.87005 8.16643C7.65005 8.41643 7.01005 9.01643 7.01005 10.2364C7.01005 11.4564 7.90005 12.6364 8.02005 12.7964C8.14005 12.9664 9.77005 15.4664 12.25 16.5364C12.84 16.7964 13.3 16.9464 13.66 17.0564C14.25 17.2464 14.79 17.2164 15.22 17.1564C15.7 17.0864 16.69 16.5564 16.89 15.9764C17.1 15.3964 17.1 14.9064 17.03 14.7964C16.96 14.6864 16.81 14.6364 16.56 14.5164Z" fill="#1521F9"/>
</svg>
