<svg width="24" height="18" viewBox="0 0 24 18" fill="none" xmlns="http://www.w3.org/2000/svg">
<path id="Vector" fill-rule="evenodd" clip-rule="evenodd" d="M21.5882 7.15015C16.2966 1.85855 7.71866 1.85855 2.42706 7.15015C2.19475 7.37452 1.88361 7.49868 1.56065 7.49587C1.23769 7.49306 0.928747 7.36352 0.700371 7.13515C0.471994 6.90677 0.342453 6.59783 0.339646 6.27487C0.33684 5.95191 0.460993 5.64077 0.685366 5.40846C6.93773 -0.845137 17.0775 -0.845137 23.3299 5.40846C23.5542 5.64077 23.6784 5.95191 23.6756 6.27487C23.6728 6.59783 23.5432 6.90677 23.3148 7.13515C23.0865 7.36352 22.7775 7.49306 22.4546 7.49587C22.1316 7.49868 21.8205 7.37452 21.5882 7.15015ZM18.1048 10.6335C17.3041 9.8328 16.3536 9.19761 15.3074 8.76424C14.2612 8.33088 13.14 8.10783 12.0076 8.10783C10.8752 8.10783 9.75397 8.33088 8.70782 8.76424C7.66166 9.19761 6.71111 9.8328 5.91045 10.6335C5.67814 10.8579 5.367 10.9821 5.04403 10.9793C4.72107 10.9765 4.41214 10.8469 4.18376 10.6185C3.95538 10.3902 3.82584 10.0812 3.82303 9.75826C3.82023 9.4353 3.94438 9.12416 4.16875 8.89184C5.19816 7.86242 6.42025 7.04584 7.76525 6.48872C9.11024 5.9316 10.5518 5.64486 12.0076 5.64486C13.4634 5.64486 14.905 5.9316 16.25 6.48872C17.595 7.04584 18.8171 7.86242 19.8465 8.89184C20.0708 9.12416 20.195 9.4353 20.1922 9.75826C20.1894 10.0812 20.0598 10.3902 19.8315 10.6185C19.6031 10.8469 19.2941 10.9765 18.9712 10.9793C18.6482 10.9821 18.3371 10.8579 18.1048 10.6335ZM14.6189 14.1194C13.926 13.4266 12.9862 13.0375 12.0064 13.0375C11.0265 13.0375 10.0868 13.4266 9.39384 14.1194C9.16271 14.3505 8.84924 14.4804 8.52237 14.4804C8.19551 14.4804 7.88204 14.3505 7.65091 14.1194C7.41979 13.8883 7.28994 13.5748 7.28994 13.2479C7.28994 12.9211 7.41979 12.6076 7.65091 12.3765C8.22283 11.8044 8.90183 11.3506 9.64915 11.041C10.3965 10.7314 11.1975 10.572 12.0064 10.572C12.8153 10.572 13.6163 10.7314 14.3636 11.041C15.1109 11.3506 15.7899 11.8044 16.3618 12.3765C16.593 12.6076 16.7228 12.9211 16.7228 13.2479C16.7228 13.5748 16.593 13.8883 16.3618 14.1194C16.1307 14.3505 15.8172 14.4804 15.4904 14.4804C15.1635 14.4804 14.85 14.3505 14.6189 14.1194ZM10.7759 16.7307C10.7759 16.404 10.9056 16.0907 11.1366 15.8597C11.3676 15.6287 11.6809 15.499 12.0076 15.499H12.0199C12.3466 15.499 12.6599 15.6287 12.8909 15.8597C13.1219 16.0907 13.2517 16.404 13.2517 16.7307C13.2517 17.0574 13.1219 17.3707 12.8909 17.6017C12.6599 17.8327 12.3466 17.9625 12.0199 17.9625H12.0076C11.6809 17.9625 11.3676 17.8327 11.1366 17.6017C10.9056 17.3707 10.7759 17.0574 10.7759 16.7307Z" fill="#1E1E1E"/>
</svg>
